<?xml version="1.0" encoding="UTF-8" standalone="no"?>
<svg
   xmlns:dc="http://purl.org/dc/elements/1.1/"
   xmlns:cc="http://creativecommons.org/ns#"
   xmlns:rdf="http://www.w3.org/1999/02/22-rdf-syntax-ns#"
   xmlns:svg="http://www.w3.org/2000/svg"
   xmlns="http://www.w3.org/2000/svg"
   xmlns:sodipodi="http://sodipodi.sourceforge.net/DTD/sodipodi-0.dtd"
   xmlns:inkscape="http://www.inkscape.org/namespaces/inkscape"
   version="1.0"
   width="212.94466pt"
   height="263.65399pt"
   viewBox="0 0 212.94466 263.65399"
   preserveAspectRatio="xMidYMid meet"
   id="svg4301"
   inkscape:version="0.91 r"
   sodipodi:docname="POINTER.svg">
  <defs
     id="defs4313" />
  <sodipodi:namedview
     pagecolor="#ffffff"
     bordercolor="#666666"
     borderopacity="1"
     objecttolerance="10"
     gridtolerance="10"
     guidetolerance="10"
     inkscape:pageopacity="0"
     inkscape:pageshadow="2"
     inkscape:window-width="1366"
     inkscape:window-height="744"
     id="namedview4311"
     showgrid="false"
     inkscape:zoom="1.541375"
     inkscape:cx="116.79673"
     inkscape:cy="161.01219"
     inkscape:window-x="0"
     inkscape:window-y="24"
     inkscape:window-maximized="1"
     inkscape:current-layer="svg4301"
     fit-margin-top="0"
     fit-margin-left="0"
     fit-margin-right="0"
     fit-margin-bottom="0" />
  <metadata
     id="metadata4303">
Created by potrace 1.10, written by Peter Selinger 2001-2011
<rdf:RDF>
  <cc:Work
     rdf:about="">
    <dc:format>image/svg+xml</dc:format>
    <dc:type
       rdf:resource="http://purl.org/dc/dcmitype/StillImage" />
    <dc:title></dc:title>
  </cc:Work>
</rdf:RDF>
</metadata>
  <path
     style="opacity:1;fill:#ff0000;fill-opacity:0.81860465;fill-rule:nonzero;stroke:none;stroke-width:1.39999998;stroke-linejoin:miter;stroke-miterlimit:4;stroke-dasharray:none;stroke-opacity:0.66190473"
     d="M 2.44868,261.16793 0,258.68187 5.98174,244.22718 C 9.2717,236.27709 22.23991,204.66503 34.799978,173.97814 47.360066,143.29126 66.262536,97.163612 76.805496,71.472258 c 10.54295,-25.691344 21.4596,-52.386621 24.259224,-59.322835 3.07078,-7.6079967 5.27826,-12.42326874 5.56418,-12.13735274 0.26067,0.260671 5.10892,11.89147474 10.77388,25.84623474 5.66497,13.954759 19.7941,48.494505 31.39807,76.754985 11.60396,28.26048 27.06881,65.98005 34.36631,83.82127 7.29751,17.8412 16.9828,41.43053 21.52285,52.42072 l 8.25465,19.98216 -2.48009,2.19515 c -1.36406,1.20733 -2.64085,2.19995 -2.83733,2.20582 -0.19647,0.006 -23.04742,-10.01829 -50.77986,-22.27593 L 106.42473,218.67589 59.110366,239.59672 C 33.08746,251.10317 10.2438,261.22324 8.34667,262.08576 L 4.89735,263.654 2.44868,261.16793 Z"
     id="path4855"
     inkscape:connector-curvature="0" />
</svg>
